Coordinates
version=1
nRows=17
nColumns=24
inDegrees=yes

Units are S.I. units (second, meters, Newtons, ...)
Angles are in degrees.

endheader
time	pelvis_tilt	pelvis_list	pelvis_rotation	pelvis_tx	pelvis_ty	pelvis_tz	hip_flexion_r	hip_adduction_r	hip_rotation_r	knee_angle_r	ankle_angle_r	subtalar_angle_r	mtp_angle_r	hip_flexion_l	hip_adduction_l	hip_rotation_l	knee_angle_l	ankle_angle_l	subtalar_angle_l	mtp_angle_l	lumbar_extension	lumbar_bending	lumbar_rotation
      2.79500000	     -1.71220287	     -5.50237091	     -4.40273203	     -1.10355485	      0.93871115	      0.23759114	     11.63115924	     13.23411325	      5.71183711	    -21.36686859	     13.53970529	    -17.39741143	      0.00000000	     26.66088737	     -5.82965607	     -3.19697226	    -69.86468651	     12.15733876	    -12.19913182	      0.00000000	    -10.48323208	      6.29816277	     -2.79594592
      2.80000000	     -1.67314011	     -5.23030517	     -4.50959331	     -1.09675451	      0.93979322	      0.23814033	     10.86181940	     12.96050241	      6.02422345	    -20.88654095	     13.65833680	    -17.47955278	      0.00000000	     27.16208859	     -5.53759741	     -3.23934145	    -68.84373296	     12.43838796	    -11.95158326	      0.00000000	    -10.48101151	      5.89926115	     -2.71549473
      2.80500000	     -1.62756473	     -4.96851679	     -4.64747026	     -1.08997446	      0.94078871	      0.23871960	     10.09543734	     12.69708848	      6.35985727	    -20.42501699	     13.79372010	    -17.54609110	      0.00000000	     27.61469995	     -5.26563532	     -3.31047351	    -67.73475986	     12.67758054	    -11.78756168	      0.00000000	    -10.49330496	      5.50758149	     -2.56985932
      2.81000000	     -1.59179000	     -4.71926465	     -4.79118487	     -1.08320235	      0.94167118	      0.23931928	      9.35135094	     12.44218700	      6.67706565	    -19.97937476	     13.93955183	    -17.59710349	      0.00000000	     28.04457629	     -5.01225121	     -3.38832741	    -66.54656260	     12.87252061	    -11.69129869	      0.00000000	    -10.49620095	      5.12797097	     -2.41251050
      2.81500000	     -1.57066428	     -4.48654779	     -4.94523316	     -1.07642681	      0.94243051	      0.23990239	      8.63587191	     12.19776826	      6.96589633	    -19.55268542	     14.09756859	    -17.62662278	      0.00000000	     28.45434379	     -4.77686263	     -3.46879579	    -65.28060074	     13.04095498	    -11.65175951	      0.00000000	    -10.48284212	      4.77792118	     -2.24650186
      2.82000000	     -1.55988567	     -4.27104832	     -5.10909811	     -1.06964895	      0.94307296	      0.24051164	      7.94175687	     11.96750903	      7.23213098	    -19.14142644	     14.26454680	    -17.63386548	      0.00000000	     28.84123687	     -4.56831890	     -3.55700764	    -63.94041552	     13.17972947	    -11.65215950	      0.00000000	    -10.45722100	      4.44115969	     -2.07536810
      2.82500000	     -1.55605200	     -4.07294770	     -5.28443883	     -1.06284860	      0.94360742	      0.24113040	      7.26859554	     11.75179626	      7.48578210	    -18.75839639	     14.43826205	    -17.62151017	      0.00000000	     29.19466665	     -4.37916629	     -3.63923069	    -62.52130099	     13.29946341	    -11.68272367	      0.00000000	    -10.41844444	      4.12627890	     -1.89582732
      2.83000000	     -1.55364870	     -3.89549850	     -5.46922934	     -1.05606994	      0.94402625	      0.24173237	      6.60965597	     11.55250014	      7.73574207	    -18.39617214	     14.62364119	    -17.59310793	      0.00000000	     29.51703522	     -4.21044549	     -3.71474932	    -61.03331368	     13.40612867	    -11.74092034	      0.00000000	    -10.38774503	      3.83733800	     -1.68948726
      2.83500000	     -1.54204365	     -3.72846691	     -5.67438847	     -1.04928495	      0.94435686	      0.24230723	      5.95125437	     11.35745577	      7.99551652	    -18.05638533	     14.82584027	    -17.55473577	      0.00000000	     29.79032276	     -4.05586861	     -3.79876653	    -59.47127324	     13.49242693	    -11.81494417	      0.00000000	    -10.37575973	      3.57380685	     -1.45198276
      2.84000000	     -1.54162018	     -3.58649182	     -5.87072162	     -1.04248216	      0.94455178	      0.24293403	      5.31805347	     11.19090660	      8.23519785	    -17.74420093	     15.03873905	    -17.51162132	      0.00000000	     30.04456652	     -3.92883247	     -3.85478134	    -57.84844274	     13.58136588	    -11.86928227	      0.00000000	    -10.34109603	      3.32125906	     -1.22146968
      2.84500000	     -1.53528941	     -3.45650884	     -6.08578654	     -1.03568861	      0.94465536	      0.24351135	      4.69159317	     11.02951432	      8.48412734	    -17.45683622	     15.26699710	    -17.46127545	      0.00000000	     30.25578973	     -3.81564904	     -3.91378960	    -56.15764211	     13.65754372	    -11.91243709	      0.00000000	    -10.32479670	      3.10129218	     -0.96449275
      2.85000000	     -1.53233191	     -3.34646080	     -6.30131246	     -1.02888942	      0.94464433	      0.24407926	      4.08057581	     10.88665966	      8.72675493	    -17.19324500	     15.50806691	    -17.41076045	      0.00000000	     30.43903414	     -3.72274177	     -3.95431830	    -54.40867170	     13.73519871	    -11.91850158	      0.00000000	    -10.30794436	      2.90247820	     -0.70288826
      2.85500000	     -1.53665413	     -3.24897510	     -6.51906369	     -1.02208848	      0.94452025	      0.24464126	      3.49206953	     10.75607964	      8.96559291	    -16.95883150	     15.76136562	    -17.36323792	      0.00000000	     30.59648368	     -3.64331220	     -3.97575245	    -52.59979151	     13.81670806	    -11.87514724	      0.00000000	    -10.28576405	      2.72195355	     -0.44272000
      2.86000000	     -1.51850892	     -3.17350917	     -6.74331347	     -1.01531216	      0.94433316	      0.24517717	      2.89551257	     10.64351682	      9.22349082	    -16.75876856	     16.02260670	    -17.30811254	      0.00000000	     30.69635730	     -3.58185854	     -3.97269220	    -50.73202054	     13.88968913	    -11.79103971	      0.00000000	    -10.30145774	      2.56682003	     -0.13561951
      2.86500000	     -1.54468084	     -3.09796670	     -6.96042643	     -1.00849073	      0.94397883	      0.24572133	      2.35722675	     10.53579503	      9.44587240	    -16.57596075	     16.30031564	    -17.27701253	      0.00000000	     30.81157412	     -3.53391988	     -3.97401935	    -48.81050478	     13.98778743	    -11.62401896	      0.00000000	    -10.25692071	      2.41930640	      0.09149206
      2.87000000	     -1.53588185	     -3.04215876	     -7.18759974	     -1.00172102	      0.94359399	      0.24621696	      1.80137125	     10.44123260	      9.70246910	    -16.43521330	     16.58498832	    -17.23049236	      0.00000000	     30.85471421	     -3.49626766	     -3.93911863	    -46.83130049	     14.06887439	    -11.41032051	      0.00000000	    -10.27423594	      2.29625697	      0.39915236
      2.87500000	     -1.54632483	     -2.99041132	     -7.41174521	     -0.99491870	      0.94308819	      0.24672693	      1.27699479	     10.35388807	      9.93793078	    -16.31641833	     16.88209340	    -17.20218614	      0.00000000	     30.88662536	     -3.47165921	     -3.89385642	    -44.80509082	     14.16263527	    -11.11729887	      0.00000000	    -10.26523959	      2.17748012	      0.66178425
